# xmcd
#
# Track frame offsets: 
#        150
#        14691
#        40517
#        67734
#        90026
#        116334
#        133367
#        152998
#        170218
#        196047
#        221687
#        243956
#        267363
#        294838
#
# Disc length: 4243 seconds
#
# Revision: 0
# Processed by: cddbd v1.5.2PL0 Copyright (c) Steve Scherf et al.
# Submitted via: ExactAudioCopy v1.2
#
DISCID=bc10910e
DTITLE=Ike Cosse - Don't Give Up on Love
DYEAR=2018
DGENRE=Blues
TTITLE0=It's Blues Time Everybody
TTITLE1=The Love You Took Away
TTITLE2=12 Steps Blues
TTITLE3=Memo Blues
TTITLE4=Don't Give Up on Love
TTITLE5=Crocodile Tears
TTITLE6=I'm Still Sitting Here
TTITLE7=Have You Seen My Baby
TTITLE8=It's Been a Long Long Time
TTITLE9=Friends With Benefits
TTITLE10=The Dreamer Song
TTITLE11=Paso Robles Blues
TTITLE12=The Love You Took Away (Reggae Version)
TTITLE13=Paso Robles Blues (Instrumental)
EXTD=
EXTT0=
EXTT1=
EXTT2=
EXTT3=
EXTT4=
EXTT5=
EXTT6=
EXTT7=
EXTT8=
EXTT9=
EXTT10=
EXTT11=
EXTT12=
EXTT13=
PLAYORDER=
